<svg xmlns="http://www.w3.org/2000/svg" xmlns:xlink="http://www.w3.org/1999/xlink" width="940" zoomAndPan="magnify" viewBox="0 0 705 591.000005" height="788" preserveAspectRatio="xMidYMid meet" version="1.0"><defs><clipPath id="9e8999a535"><path d="M 191 7 L 540 7 L 540 590 L 191 590 Z M 191 7 " clip-rule="nonzero"/></clipPath><clipPath id="b275e03fb0"><path d="M 334 179 L 474 179 L 474 412.851562 L 334 412.851562 Z M 334 179 " clip-rule="nonzero"/></clipPath></defs><g clip-path="url(#9e8999a535)"><path fill="#000000" d="M 523.105469 258.207031 L 288.410156 23.671875 C 266.179688 1.457031 230.0625 1.457031 207.832031 23.671875 C 185.597656 45.890625 185.597656 81.980469 207.832031 104.195312 L 402.1875 298.519531 L 207.832031 492.84375 C 185.597656 515.058594 185.597656 551.148438 207.832031 573.367188 C 218.59375 584.125 232.878906 590.054688 248.070312 590.054688 C 263.261719 590.054688 277.644531 584.125 288.410156 573.367188 L 523.105469 338.832031 C 545.335938 316.613281 545.335938 280.425781 523.105469 258.207031 Z M 523.105469 258.207031 " fill-opacity="1" fill-rule="nonzero"/></g><g clip-path="url(#b275e03fb0)"><path fill="#000000" d="M 466.714844 280.21875 L 373.03125 186.460938 C 364.160156 177.578125 349.742188 177.578125 340.867188 186.460938 C 331.992188 195.34375 331.992188 209.769531 340.867188 218.652344 L 418.449219 296.332031 L 340.867188 374.015625 C 331.992188 382.894531 331.992188 397.324219 340.867188 406.203125 C 345.164062 410.503906 350.867188 412.875 356.929688 412.875 C 362.992188 412.875 368.734375 410.503906 373.03125 406.203125 L 466.714844 312.449219 C 475.589844 303.566406 475.589844 289.097656 466.714844 280.21875 Z M 466.714844 280.21875 " fill-opacity="1" fill-rule="nonzero"/></g></svg>